<svg xmlns="http://www.w3.org/2000/svg" viewBox="-71.3 -32.0 142.7 64.0"><path d="M63.34 -4.28 L62.99 -4.28 L62.64 -4.28 L62.29 -4.28 L61.94 -4.28 L61.59 -4.28 L61.24 -4.28 L60.89 -4.28 L60.54 -4.28 L60.19 -4.28 L59.84 -4.28 L59.49 -4.28 L59.14 -4.28 L58.79 -4.28 L58.44 -4.28 L58.09 -4.28 L57.74 -4.28 L57.39 -4.28 L57.04 -4.28 L56.69 -4.28 L56.34 -4.28 L55.99 -4.28 L55.64 -4.28 L55.29 -4.28 L54.94 -4.28 L54.59 -4.28 L54.24 -4.28 L53.89 -4.28 L53.54 -4.28 L53.19 -4.28 L52.84 -4.28 L52.49 -4.28 L52.14 -4.28 L51.79 -4.28 L51.44 -4.28 L51.09 -4.28 L50.74 -4.28 L50.39 -4.28 L50.04 -4.28 L49.69 -4.28 L49.34 -4.28 L49.22 -4.28 L49.11 -4.28 L48.99 -4.28 L48.88 -4.28 L48.76 -4.28 L48.65 -4.28 L48.53 -4.28 L48.42 -4.28 L48.30 -4.28 L48.19 -4.28 L48.07 -4.28 L47.96 -4.28 L47.84 -4.28 L47.73 -4.28 L47.61 -4.28 L47.50 -4.28 L47.38 -4.28 L47.27 -4.28 L47.15 -4.28 L47.04 -4.28 L46.92 -4.28 L46.81 -4.28 L46.69 -4.28 L46.58 -4.28 L46.46 -4.29 L46.35 -4.29 L46.23 -4.29 L46.12 -4.29 L46.00 -4.29 L45.89 -4.29 L45.77 -4.29 L45.66 -4.29 L45.54 -4.29 L45.43 -4.29 L45.31 -4.29 L45.20 -4.29 L45.08 -4.29 L44.97 -4.29 L44.85 -4.29 L44.74 -4.29 L44.62 -4.29 L44.51 -4.29 L44.39 -4.29 L44.28 -4.29 L44.16 -4.30 L44.05 -4.30 L43.93 -4.30 L43.82 -4.30 L43.70 -4.30 L43.59 -4.30 L43.47 -4.30 L43.36 -4.30 L43.24 -4.30 L43.13 -4.31 L43.01 -4.31 L42.90 -4.31 L42.78 -4.31 L42.67 -4.31 L42.55 -4.31 L42.44 -4.31 L42.32 -4.32 L42.21 -4.32 L42.09 -4.32 L41.98 -4.32 L41.86 -4.32 L41.75 -4.33 L41.63 -4.33 L41.52 -4.33 L41.40 -4.33 L41.29 -4.34 L41.17 -4.34 L41.06 -4.34 L40.94 -4.34 L40.83 -4.35 L40.71 -4.35 L40.60 -4.35 L40.48 -4.35 L40.37 -4.36 L40.25 -4.36 L40.14 -4.36 L40.02 -4.37 L39.91 -4.37 L39.79 -4.37 L39.68 -4.38 L39.56 -4.38 L39.45 -4.39 L39.33 -4.39 L39.22 -4.39 L39.10 -4.40 L38.99 -4.40 L38.87 -4.41 L38.76 -4.41 L38.64 -4.42 L38.53 -4.42 L38.41 -4.43 L38.30 -4.43 L38.18 -4.44 L38.07 -4.44 L37.96 -4.45 L37.84 -4.45 L37.73 -4.46 L37.61 -4.46 L37.50 -4.47 L37.38 -4.48 L37.27 -4.48 L37.15 -4.49 L37.04 -4.49 L36.92 -4.50 L36.81 -4.51 L36.69 -4.51 L36.58 -4.52 L36.46 -4.53 L36.35 -4.53 L36.23 -4.54 L36.12 -4.55 L36.00 -4.56 L35.89 -4.56 L35.77 -4.57 L35.66 -4.58 L35.54 -4.59 L35.43 -4.60 L35.31 -4.61 L35.20 -4.61 L35.09 -4.62 L34.97 -4.63 L34.86 -4.64 L34.74 -4.65 L34.63 -4.66 L34.51 -4.67 L34.40 -4.68 L34.28 -4.69 L34.17 -4.70 L34.05 -4.71 L33.94 -4.72 L33.83 -4.73 L33.71 -4.74 L33.60 -4.75 L33.48 -4.76 L33.37 -4.77 L33.25 -4.78 L33.14 -4.79 L33.02 -4.80 L32.91 -4.82 L32.79 -4.83 L32.68 -4.84 L32.57 -4.85 L32.45 -4.86 L32.34 -4.88 L32.22 -4.89 L32.11 -4.90 L31.99 -4.92 L31.88 -4.93 L31.77 -4.94 L31.65 -4.96 L31.54 -4.97 L31.42 -4.98 L31.31 -5.00 L31.20 -5.01 L31.08 -5.03 L30.97 -5.04 L30.85 -5.05 L30.74 -5.07 L30.63 -5.08 L30.51 -5.10 L30.40 -5.12 L30.28 -5.13 L30.17 -5.15 L30.06 -5.16 L29.94 -5.18 L29.83 -5.20 L29.71 -5.21 L29.60 -5.23 L29.49 -5.24 L29.37 -5.26 L29.26 -5.28 L29.15 -5.30 L29.03 -5.31 L28.92 -5.33 L28.80 -5.35 L28.69 -5.37 L28.58 -5.39 L28.46 -5.40 L28.35 -5.42 L28.24 -5.44 L28.12 -5.46 L28.01 -5.48 L27.90 -5.50 L27.78 -5.52 L27.67 -5.54 L27.56 -5.56 L27.44 -5.58 L27.33 -5.60 L27.22 -5.62 L27.10 -5.64 L26.99 -5.66 L26.88 -5.68 L26.76 -5.70 L26.65 -5.72 L26.54 -5.75 L26.43 -5.77 L26.31 -5.79 L26.20 -5.81 L26.09 -5.83 L25.97 -5.86 L25.86 -5.88 L25.75 -5.90 L25.64 -5.93 L25.52 -5.95 L25.41 -5.97 L25.30 -6.00 L25.19 -6.02 L25.07 -6.04 L24.96 -6.07 L24.85 -6.09 L24.74 -6.12 L24.62 -6.14 L24.51 -6.17 L24.40 -6.19 L24.29 -6.22 L24.18 -6.24 L24.06 -6.27 L23.95 -6.29 L23.84 -6.32 L23.73 -6.35 L23.62 -6.37 L23.50 -6.40 L23.39 -6.42 L23.28 -6.45 L23.17 -6.48 L23.06 -6.51 L22.94 -6.53 L22.83 -6.56 L22.72 -6.59 L22.61 -6.62 L22.50 -6.64 L22.39 -6.67 L22.28 -6.70 L22.16 -6.73 L22.05 -6.76 L21.94 -6.79 L21.83 -6.82 L21.72 -6.85 L21.61 -6.88 L21.50 -6.90 L21.39 -6.93 L21.27 -6.96 L21.16 -6.99 L21.05 -7.02 L20.94 -7.06 L20.83 -7.09 L20.72 -7.12 L20.61 -7.15 L20.50 -7.18 L20.39 -7.21 L20.28 -7.24 L20.17 -7.27 L20.06 -7.30 L19.95 -7.34 L19.83 -7.37 L19.72 -7.40 L19.61 -7.43 L19.50 -7.47 L19.39 -7.50 L19.28 -7.53 L19.17 -7.56 L19.06 -7.60 L18.95 -7.63 L18.84 -7.66 L18.73 -7.70 L18.62 -7.73 L18.51 -7.77 L18.40 -7.80 L18.29 -7.83 L18.18 -7.87 L18.07 -7.90 L17.96 -7.94 L17.85 -7.97 L17.75 -8.01 L17.64 -8.04 L17.53 -8.08 L17.42 -8.11 L17.31 -8.15 L17.20 -8.18 L17.09 -8.22 L16.98 -8.26 L16.87 -8.29 L16.76 -8.33 L16.65 -8.36 L16.54 -8.40 L16.43 -8.44 L16.32 -8.47 L16.22 -8.51 L16.11 -8.55 L16.00 -8.58 L15.89 -8.62 L15.78 -8.66 L15.67 -8.70 L15.56 -8.73 L15.45 -8.77 L15.35 -8.81 L15.24 -8.85 L15.13 -8.88 L15.02 -8.92 L14.91 -8.96 L14.80 -9.00 L14.69 -9.04 L14.59 -9.08 L14.48 -9.11 L14.37 -9.15 L14.26 -9.19 L14.15 -9.23 L14.05 -9.27 L13.94 -9.31 L13.83 -9.35 L13.72 -9.39 L13.61 -9.43 L13.50 -9.47 L13.40 -9.51 L13.29 -9.55 L13.18 -9.59 L13.07 -9.63 L12.97 -9.67 L12.86 -9.71 L12.75 -9.75 L12.64 -9.79 L12.53 -9.83 L12.43 -9.87 L12.32 -9.91 L12.21 -9.95 L12.10 -9.99 L12.00 -10.03 L11.89 -10.07 L11.78 -10.11 L11.67 -10.15 L11.57 -10.19 L11.46 -10.23 L11.35 -10.28 L11.24 -10.32 L11.14 -10.36 L11.03 -10.40 L10.92 -10.44 L10.82 -10.48 L10.71 -10.52 L10.60 -10.57 L10.49 -10.61 L10.39 -10.65 L10.28 -10.69 L10.17 -10.73 L10.07 -10.77 L9.96 -10.82 L9.85 -10.86 L9.74 -10.90 L9.64 -10.94 L9.53 -10.98 L9.42 -11.03 L9.32 -11.07 L9.21 -11.11 L9.10 -11.15 L9.00 -11.20 L8.89 -11.24 L8.78 -11.28 L8.67 -11.32 L8.57 -11.37 L8.46 -11.41 L8.35 -11.45 L8.25 -11.49 L8.14 -11.54 L8.03 -11.58 L7.93 -11.62 L7.82 -11.66 L7.71 -11.71 L7.61 -11.75 L7.50 -11.79 L7.39 -11.84 L7.29 -11.88 L7.18 -11.92 L7.07 -11.96 L6.97 -12.01 L6.86 -12.05 L6.75 -12.09 L6.65 -12.14 L6.54 -12.18 L6.43 -12.22 L6.33 -12.27 L6.22 -12.31 L6.11 -12.35 L6.01 -12.39 L5.90 -12.44 L5.79 -12.48 L5.69 -12.52 L5.58 -12.57 L5.47 -12.61 L5.37 -12.65 L5.26 -12.70 L5.15 -12.74 L5.05 -12.78 L4.94 -12.83 L4.83 -12.87 L4.73 -12.91 L4.62 -12.95 L4.34 -13.07 L4.06 -13.18 L3.78 -13.30 L3.50 -13.41 L3.21 -13.52 L2.93 -13.64 L2.65 -13.75 L2.37 -13.86 L2.09 -13.98 L1.81 -14.09 L1.53 -14.20 L1.24 -14.32 L0.96 -14.43 L0.68 -14.54 L0.40 -14.66 L0.12 -14.77 L-0.16 -14.88 L-0.44 -15.00 L-0.72 -15.11 L-1.01 -15.22 L-1.29 -15.34 L-1.57 -15.45 L-1.85 -15.56 L-2.13 -15.68 L-2.41 -15.79 L-2.70 -15.90 L-2.98 -16.01 L-3.26 -16.13 L-3.54 -16.24 L-3.82 -16.35 L-4.11 -16.46 L-4.39 -16.57 L-4.67 -16.69 L-4.95 -16.80 L-5.23 -16.91 L-5.52 -17.02 L-5.80 -17.13 L-6.08 -17.24 L-6.36 -17.35 L-6.65 -17.46 L-6.93 -17.57 L-7.21 -17.68 L-7.50 -17.79 L-7.78 -17.90 L-8.06 -18.00 L-8.35 -18.11 L-8.63 -18.22 L-8.91 -18.33 L-9.20 -18.43 L-9.48 -18.54 L-9.77 -18.65 L-10.05 -18.75 L-10.34 -18.86 L-10.62 -18.96 L-10.90 -19.07 L-11.19 -19.17 L-11.48 -19.27 L-11.76 -19.37 L-12.05 -19.48 L-12.33 -19.58 L-12.62 -19.68 L-12.91 -19.78 L-13.19 -19.88 L-13.48 -19.98 L-13.77 -20.08 L-14.05 -20.17 L-14.34 -20.27 L-14.63 -20.37 L-14.92 -20.46 L-15.20 -20.56 L-15.49 -20.65 L-15.78 -20.74 L-16.07 -20.84 L-16.36 -20.93 L-16.65 -21.02 L-16.94 -21.11 L-17.23 -21.20 L-17.52 -21.28 L-17.81 -21.37 L-18.10 -21.46 L-18.39 -21.54 L-18.68 -21.63 L-18.98 -21.71 L-19.27 -21.79 L-19.56 -21.87 L-19.85 -21.95 L-20.15 -22.03 L-20.44 -22.11 L-20.73 -22.18 L-21.03 -22.26 L-21.32 -22.33 L-21.62 -22.40 L-21.91 -22.48 L-22.21 -22.55 L-22.50 -22.61 L-22.80 -22.68 L-23.09 -22.75 L-23.39 -22.81 L-23.69 -22.87 L-23.98 -22.94 L-24.28 -23.00 L-24.58 -23.06 L-24.88 -23.11 L-25.17 -23.17 L-25.47 -23.22 L-25.77 -23.28 L-26.07 -23.33 L-26.37 -23.38 L-26.67 -23.42 L-26.97 -23.47 L-27.27 -23.51 L-27.57 -23.56 L-27.87 -23.60 L-28.17 -23.64 L-28.47 -23.67 L-28.77 -23.71 L-29.08 -23.74 L-29.38 -23.77 L-29.68 -23.80 L-29.98 -23.83 L-30.28 -23.86 L-30.59 -23.88 L-30.89 -23.90 L-31.19 -23.92 L-31.49 -23.94 L-31.80 -23.95 L-32.10 -23.97 L-32.40 -23.98 L-32.71 -23.99 L-33.01 -23.99 L-33.31 -24.00 L-33.62 -24.00 L-33.92 -24.00 L-34.22 -24.00 L-34.53 -23.99 L-34.83 -23.99 L-35.13 -23.98 L-35.44 -23.96 L-35.74 -23.95 L-36.04 -23.93 L-36.35 -23.91 L-36.65 -23.89 L-36.95 -23.87 L-37.25 -23.84 L-37.55 -23.81 L-37.86 -23.78 L-38.16 -23.74 L-38.46 -23.71 L-38.76 -23.67 L-39.06 -23.62 L-39.36 -23.58 L-39.66 -23.53 L-39.96 -23.48 L-40.26 -23.43 L-40.55 -23.37 L-40.85 -23.31 L-41.15 -23.25 L-41.45 -23.18 L-41.74 -23.11 L-42.04 -23.04 L-42.33 -22.97 L-42.62 -22.89 L-42.92 -22.81 L-43.21 -22.73 L-43.50 -22.64 L-43.79 -22.56 L-44.08 -22.46 L-44.37 -22.37 L-44.65 -22.27 L-44.94 -22.17 L-45.23 -22.07 L-45.51 -21.96 L-45.79 -21.85 L-46.07 -21.74 L-46.35 -21.62 L-46.63 -21.50 L-46.91 -21.38 L-47.19 -21.26 L-47.46 -21.13 L-47.74 -21.00 L-48.01 -20.86 L-48.28 -20.73 L-48.55 -20.58 L-48.81 -20.44 L-49.08 -20.29 L-49.34 -20.14 L-49.61 -19.99 L-49.87 -19.83 L-50.12 -19.67 L-50.38 -19.51 L-50.63 -19.35 L-50.89 -19.18 L-51.14 -19.01 L-51.38 -18.83 L-51.63 -18.65 L-51.87 -18.47 L-52.11 -18.29 L-52.35 -18.10 L-52.59 -17.91 L-52.82 -17.72 L-53.05 -17.52 L-53.28 -17.32 L-53.51 -17.12 L-53.73 -16.92 L-53.95 -16.71 L-54.17 -16.50 L-54.39 -16.28 L-54.60 -16.07 L-54.81 -15.85 L-55.02 -15.63 L-55.22 -15.40 L-55.42 -15.17 L-55.62 -14.94 L-55.81 -14.71 L-56.01 -14.48 L-56.19 -14.24 L-56.38 -14.00 L-56.56 -13.75 L-56.74 -13.51 L-56.91 -13.26 L-57.08 -13.01 L-57.25 -12.76 L-57.42 -12.50 L-57.58 -12.24 L-57.73 -11.98 L-57.89 -11.72 L-58.03 -11.46 L-58.18 -11.19 L-58.32 -10.92 L-58.46 -10.65 L-58.59 -10.38 L-58.72 -10.11 L-58.85 -9.83 L-58.97 -9.55 L-59.09 -9.27 L-59.20 -8.99 L-59.31 -8.71 L-59.42 -8.42 L-59.52 -8.14 L-59.61 -7.85 L-59.71 -7.56 L-59.79 -7.27 L-59.88 -6.98 L-59.96 -6.69 L-60.03 -6.39 L-60.10 -6.10 L-60.17 -5.80 L-60.23 -5.50 L-60.29 -5.21 L-60.34 -4.91 L-60.39 -4.61 L-60.43 -4.31 L-60.47 -4.01 L-60.51 -3.71 L-60.54 -3.40 L-60.56 -3.10 L-60.58 -2.80 L-60.60 -2.50 L-60.61 -2.19 L-60.62 -1.89 L-60.62 -1.59 L-60.62 -1.28 L-60.61 -0.98 L-60.60 -0.68 L-60.58 -0.37 L-60.56 -0.07 L-60.54 0.23 L-60.51 0.53 L-60.47 0.83 L-60.43 1.13 L-60.39 1.44 L-60.34 1.73 L-60.28 2.03 L-60.23 2.33 L-60.16 2.63 L-60.10 2.92 L-60.02 3.22 L-59.95 3.51 L-59.87 3.80 L-59.78 4.10 L-59.69 4.39 L-59.60 4.67 L-59.50 4.96 L-59.40 5.25 L-59.29 5.53 L-59.18 5.81 L-59.06 6.09 L-58.94 6.37 L-58.82 6.65 L-58.69 6.92 L-58.55 7.19 L-58.42 7.46 L-58.28 7.73 L-58.13 8.00 L-57.98 8.26 L-57.83 8.53 L-57.67 8.79 L-57.51 9.04 L-57.35 9.30 L-57.18 9.55 L-57.01 9.80 L-56.83 10.05 L-56.65 10.29 L-56.47 10.53 L-56.28 10.77 L-56.09 11.01 L-55.90 11.24 L-55.70 11.47 L-55.50 11.70 L-55.29 11.92 L-55.09 12.15 L-54.88 12.37 L-54.66 12.58 L-54.45 12.79 L-54.23 13.00 L-54.01 13.21 L-53.78 13.41 L-53.55 13.61 L-53.32 13.81 L-53.09 14.01 L-52.85 14.20 L-52.62 14.38 L-52.37 14.57 L-52.13 14.75 L-51.88 14.93 L-51.64 15.10 L-51.39 15.27 L-51.13 15.44 L-50.88 15.60 L-50.62 15.76 L-50.36 15.92 L-50.10 16.07 L-49.84 16.23 L-49.57 16.37 L-49.30 16.52 L-49.04 16.66 L-48.76 16.80 L-48.49 16.93 L-48.22 17.06 L-47.94 17.19 L-47.67 17.31 L-47.39 17.43 L-47.11 17.55 L-46.83 17.66 L-46.55 17.78 L-46.26 17.88 L-45.98 17.99 L-45.69 18.09 L-45.40 18.19 L-45.12 18.28 L-44.83 18.37 L-44.54 18.46 L-44.25 18.55 L-43.95 18.63 L-43.66 18.71 L-43.37 18.79 L-43.07 18.86 L-42.78 18.93 L-42.48 19.00 L-42.19 19.07 L-41.89 19.13 L-41.59 19.19 L-41.30 19.25 L-41.00 19.30 L-40.70 19.36 L-40.40 19.41 L-40.10 19.45 L-39.80 19.50 L-39.50 19.54 L-39.20 19.58 L-38.90 19.62 L-38.60 19.65 L-38.29 19.69 L-37.99 19.72 L-37.69 19.75 L-37.39 19.77 L-37.09 19.80 L-36.78 19.82 L-36.48 19.84 L-36.18 19.86 L-35.88 19.88 L-35.57 19.90 L-35.27 19.91 L-34.97 19.93 L-34.66 19.94 L-34.36 19.95 L-34.06 19.96 L-33.75 19.97 L-33.45 19.97 L-33.15 19.98 L-32.84 19.99 L-32.54 19.99 L-32.24 19.99 L-31.93 20.00 L-31.63 20.00 L-31.33 20.00 L-31.02 20.00 L-30.72 20.00 L-30.42 20.00 L-30.11 20.00 L-28.61 20.00 L-27.11 20.00 L-25.61 20.00 L-24.11 20.00 L-22.61 20.00 L-21.11 20.00 L-19.61 20.00 L-18.11 20.00 L-16.61 20.00 L-15.11 20.00 L-13.61 20.00 L-12.11 20.00 L-10.61 20.00 L-9.11 20.00 L-7.61 20.00 L-6.11 20.00 L-4.61 20.00 L-3.11 20.00 L-1.61 20.00 L-0.11 20.00 L1.39 20.00 L2.89 20.00 L4.39 20.00 L5.89 20.00 L7.39 20.00 L8.89 20.00 L10.39 20.00 L11.89 20.00 L13.39 20.00 L14.89 20.00 L16.39 20.00 L17.89 20.00 L19.39 20.00 L20.89 20.00 L22.39 20.00 L23.89 20.00 L25.39 20.00 L26.89 20.00 L28.39 20.00 L29.89 20.00 L30.00 20.00 L30.11 20.00 L30.23 20.00 L30.34 20.00 L30.45 20.00 L30.57 20.00 L30.68 20.00 L30.79 20.00 L30.91 20.00 L31.02 20.00 L31.13 20.00 L31.25 20.00 L31.36 20.00 L31.47 20.00 L31.58 20.00 L31.70 20.00 L31.81 20.00 L31.92 20.00 L32.04 20.00 L32.15 19.99 L32.26 19.99 L32.38 19.99 L32.49 19.99 L32.60 19.99 L32.72 19.99 L32.83 19.99 L32.94 19.98 L33.06 19.98 L33.17 19.98 L33.28 19.98 L33.40 19.97 L33.51 19.97 L33.62 19.97 L33.74 19.97 L33.85 19.96 L33.96 19.96 L34.07 19.95 L34.19 19.95 L34.30 19.94 L34.41 19.94 L34.53 19.93 L34.64 19.93 L34.75 19.92 L34.87 19.91 L34.98 19.91 L35.09 19.90 L35.20 19.89 L35.32 19.89 L35.43 19.88 L35.54 19.87 L35.66 19.86 L35.77 19.85 L35.88 19.84 L35.99 19.83 L36.11 19.82 L36.22 19.81 L36.33 19.79 L36.44 19.78 L36.56 19.77 L36.67 19.75 L36.78 19.74 L36.89 19.73 L37.01 19.71 L37.12 19.69 L37.23 19.68 L37.34 19.66 L37.45 19.64 L37.57 19.62 L37.68 19.61 L37.79 19.59 L37.90 19.57 L38.01 19.55 L38.12 19.52 L38.23 19.50 L38.34 19.48 L38.46 19.46 L38.57 19.43 L38.68 19.41 L38.79 19.38 L38.90 19.35 L39.01 19.33 L39.12 19.30 L39.23 19.27 L39.33 19.24 L39.44 19.21 L39.55 19.18 L39.66 19.15 L39.77 19.11 L39.88 19.08 L39.99 19.05 L40.09 19.01 L40.20 18.98 L40.31 18.94 L40.41 18.90 L40.52 18.86 L40.63 18.82 L40.73 18.78 L40.84 18.74 L40.94 18.70 L41.05 18.66 L41.15 18.61 L41.26 18.57 L41.36 18.52 L41.46 18.48 L41.57 18.43 L41.67 18.38 L41.77 18.33 L41.87 18.28 L41.97 18.23 L42.07 18.18 L42.17 18.12 L42.27 18.07 L42.37 18.02 L42.47 17.96 L42.57 17.90 L42.66 17.84 L42.76 17.79 L42.86 17.73 L42.95 17.66 L43.05 17.60 L43.14 17.54 L43.24 17.48 L43.33 17.41 L43.42 17.35 L43.51 17.28 L43.60 17.21 L43.69 17.14 L43.78 17.07 L43.87 17.00 L43.96 16.93 L44.05 16.86 L44.13 16.79 L44.22 16.71 L44.30 16.64 L44.39 16.56 L44.47 16.48 L44.55 16.41 L44.63 16.33 L44.71 16.25 L44.79 16.17 L44.87 16.08 L44.95 16.00 L45.02 15.92 L45.10 15.83 L45.17 15.75 L45.25 15.66 L45.32 15.58 L45.39 15.49 L45.46 15.40 L45.53 15.31 L45.60 15.22 L45.67 15.13 L45.73 15.04 L45.80 14.94 L45.86 14.85 L45.92 14.76 L45.98 14.66 L46.04 14.56 L46.10 14.47 L46.16 14.37 L46.22 14.27 L46.27 14.17 L46.33 14.07 L46.38 13.97 L46.43 13.87 L46.48 13.77 L46.53 13.67 L46.58 13.57 L46.62 13.46 L46.67 13.36 L46.71 13.25 L46.75 13.15 L46.80 13.04 L46.83 12.94 L46.87 12.83 L46.91 12.72 L46.95 12.62 L46.98 12.51 L47.01 12.40 L47.04 12.29 L47.07 12.18 L47.10 12.07 L47.13 11.96 L47.15 11.85 L47.18 11.74 L47.20 11.63 L47.22 11.52 L47.24 11.41 L47.26 11.30 L47.27 11.18 L47.29 11.07 L47.30 10.96 L47.31 10.85 L47.33 10.73 L47.33 10.62 L47.34 10.51 L47.35 10.40 L47.35 10.28 L47.36 10.17 L47.36 10.06 L47.36 9.94 L47.36 9.83 L47.35 9.72 L47.35 9.60 L47.34 9.49 L47.33 9.38 L47.33 9.27 L47.31 9.15 L47.30 9.04 L47.29 8.93 L47.27 8.82 L47.26 8.70 L47.24 8.59 L47.22 8.48 L47.20 8.37 L47.18 8.26 L47.15 8.15 L47.13 8.04 L47.10 7.93 L47.07 7.82 L47.04 7.71 L47.01 7.60 L46.98 7.49 L46.95 7.38 L46.91 7.28 L46.87 7.17 L46.83 7.06 L46.80 6.96 L46.75 6.85 L46.71 6.75 L46.67 6.64 L46.62 6.54 L46.58 6.43 L46.53 6.33 L46.48 6.23 L46.43 6.13 L46.38 6.03 L46.33 5.93 L46.27 5.83 L46.22 5.73 L46.16 5.63 L46.10 5.53 L46.04 5.44 L45.98 5.34 L45.92 5.24 L45.86 5.15 L45.80 5.06 L45.73 4.96 L45.67 4.87 L45.60 4.78 L45.53 4.69 L45.46 4.60 L45.39 4.51 L45.32 4.42 L45.25 4.34 L45.17 4.25 L45.10 4.17 L45.02 4.08 L44.95 4.00 L44.87 3.92 L44.79 3.83 L44.71 3.75 L44.63 3.67 L44.55 3.59 L44.47 3.52 L44.39 3.44 L44.30 3.36 L44.22 3.29 L44.13 3.21 L44.05 3.14 L43.96 3.07 L43.87 3.00 L43.78 2.93 L43.69 2.86 L43.60 2.79 L43.51 2.72 L43.42 2.65 L43.33 2.59 L43.24 2.52 L43.14 2.46 L43.05 2.40 L42.95 2.34 L42.86 2.27 L42.76 2.21 L42.66 2.16 L42.57 2.10 L42.47 2.04 L42.37 1.98 L42.27 1.93 L42.17 1.88 L42.07 1.82 L41.97 1.77 L41.87 1.72 L41.77 1.67 L41.67 1.62 L41.57 1.57 L41.46 1.52 L41.36 1.48 L41.26 1.43 L41.15 1.39 L41.05 1.34 L40.94 1.30 L40.84 1.26 L40.73 1.22 L40.63 1.18 L40.52 1.14 L40.41 1.10 L40.31 1.06 L40.20 1.02 L40.09 0.99 L39.99 0.95 L39.88 0.92 L39.77 0.89 L39.66 0.85 L39.55 0.82 L39.44 0.79 L39.33 0.76 L39.23 0.73 L39.12 0.70 L39.01 0.67 L38.90 0.65 L38.79 0.62 L38.68 0.59 L38.57 0.57 L38.46 0.54 L38.34 0.52 L38.23 0.50 L38.12 0.48 L38.01 0.45 L37.90 0.43 L37.79 0.41 L37.68 0.39 L37.57 0.38 L37.45 0.36 L37.34 0.34 L37.23 0.32 L37.12 0.31 L37.01 0.29 L36.89 0.27 L36.78 0.26 L36.67 0.25 L36.56 0.23 L36.44 0.22 L36.33 0.21 L36.22 0.19 L36.11 0.18 L35.99 0.17 L35.88 0.16 L35.77 0.15 L35.66 0.14 L35.54 0.13 L35.43 0.12 L35.32 0.11 L35.20 0.11 L35.09 0.10 L34.98 0.09 L34.87 0.09 L34.75 0.08 L34.64 0.07 L34.53 0.07 L34.41 0.06 L34.30 0.06 L34.19 0.05 L34.07 0.05 L33.96 0.04 L33.85 0.04 L33.74 0.03 L33.62 0.03 L33.51 0.03 L33.40 0.03 L33.28 0.02 L33.17 0.02 L33.06 0.02 L32.94 0.02 L32.83 0.01 L32.72 0.01 L32.60 0.01 L32.49 0.01 L32.38 0.01 L32.26 0.01 L32.15 0.01 L32.04 0.00 L31.92 0.00 L31.81 0.00 L31.70 0.00 L31.58 0.00 L31.47 0.00 L31.36 0.00 L31.25 0.00 L31.13 0.00 L31.02 0.00 L30.91 0.00 L30.79 0.00 L30.68 0.00 L30.57 0.00 L30.45 0.00 L30.34 0.00 L30.23 0.00 L30.11 0.00 L30.00 -0.00 L29.25 -0.00 L28.50 -0.00 L27.75 -0.00 L27.00 -0.00 L26.25 -0.00 L25.50 -0.00 L24.75 -0.00 L24.00 -0.00 L23.25 -0.00 L22.50 -0.00 L21.75 -0.00 L21.00 -0.00 L20.25 -0.00 L19.50 -0.00 L18.75 -0.00 L18.00 -0.00 L17.25 -0.00 L16.50 -0.00 L15.75 -0.00 L15.00 -0.00 L14.25 -0.00 L13.50 -0.00 L12.75 -0.00 L12.00 -0.00 L11.25 -0.00 L10.50 -0.00 L9.75 -0.00 L9.00 -0.00 L8.25 -0.00 L7.50 -0.00 L6.75 -0.00 L6.00 -0.00 L5.25 -0.00 L4.50 -0.00 L3.75 -0.00 L3.00 -0.00 L2.25 -0.00 L1.50 -0.00 L0.75 -0.00 L-0.75 0.00 L-1.50 0.00 L-2.25 0.00 L-3.00 0.00 L-3.75 0.00 L-4.50 0.00 L-5.25 0.00 L-6.00 0.00 L-6.75 0.00 L-7.50 0.00 L-8.25 0.00 L-9.00 0.00 L-9.75 0.00 L-10.50 0.00 L-11.25 0.00 L-12.00 0.00 L-12.75 0.00 L-13.50 0.00 L-14.25 0.00 L-15.00 0.00 L-15.75 0.00 L-16.50 0.00 L-17.25 0.00 L-18.00 0.00 L-18.75 0.00 L-19.50 0.00 L-20.25 0.00 L-21.00 0.00 L-21.75 0.00 L-22.50 0.00 L-23.25 0.00 L-24.00 0.00 L-24.75 0.00 L-25.50 0.00 L-26.25 0.00 L-27.00 0.00 L-27.75 0.00 L-28.50 0.00 L-29.25 0.00 L-30.00 0.00 L-30.11 -0.00 L-30.23 -0.00 L-30.34 -0.00 L-30.45 -0.00 L-30.57 -0.00 L-30.68 -0.00 L-30.79 -0.00 L-30.91 -0.00 L-31.02 -0.00 L-31.13 -0.00 L-31.25 -0.00 L-31.36 -0.00 L-31.47 -0.00 L-31.58 -0.00 L-31.70 -0.00 L-31.81 -0.00 L-31.92 -0.00 L-32.04 -0.00 L-32.15 -0.01 L-32.26 -0.01 L-32.38 -0.01 L-32.49 -0.01 L-32.60 -0.01 L-32.72 -0.01 L-32.83 -0.01 L-32.94 -0.02 L-33.06 -0.02 L-33.17 -0.02 L-33.28 -0.02 L-33.40 -0.03 L-33.51 -0.03 L-33.62 -0.03 L-33.74 -0.03 L-33.85 -0.04 L-33.96 -0.04 L-34.07 -0.05 L-34.19 -0.05 L-34.30 -0.06 L-34.41 -0.06 L-34.53 -0.07 L-34.64 -0.07 L-34.75 -0.08 L-34.87 -0.09 L-34.98 -0.09 L-35.09 -0.10 L-35.20 -0.11 L-35.32 -0.11 L-35.43 -0.12 L-35.54 -0.13 L-35.66 -0.14 L-35.77 -0.15 L-35.88 -0.16 L-35.99 -0.17 L-36.11 -0.18 L-36.22 -0.19 L-36.33 -0.21 L-36.44 -0.22 L-36.56 -0.23 L-36.67 -0.25 L-36.78 -0.26 L-36.89 -0.27 L-37.01 -0.29 L-37.12 -0.31 L-37.23 -0.32 L-37.34 -0.34 L-37.45 -0.36 L-37.57 -0.38 L-37.68 -0.39 L-37.79 -0.41 L-37.90 -0.43 L-38.01 -0.45 L-38.12 -0.48 L-38.23 -0.50 L-38.34 -0.52 L-38.46 -0.54 L-38.57 -0.57 L-38.68 -0.59 L-38.79 -0.62 L-38.90 -0.65 L-39.01 -0.67 L-39.12 -0.70 L-39.23 -0.73 L-39.33 -0.76 L-39.44 -0.79 L-39.55 -0.82 L-39.66 -0.85 L-39.77 -0.89 L-39.88 -0.92 L-39.99 -0.95 L-40.09 -0.99 L-40.20 -1.02 L-40.31 -1.06 L-40.41 -1.10 L-40.52 -1.14 L-40.63 -1.18 L-40.73 -1.22 L-40.84 -1.26 L-40.94 -1.30 L-41.05 -1.34 L-41.15 -1.39 L-41.26 -1.43 L-41.36 -1.48 L-41.46 -1.52 L-41.57 -1.57 L-41.67 -1.62 L-41.77 -1.67 L-41.87 -1.72 L-41.97 -1.77 L-42.07 -1.82 L-42.17 -1.88 L-42.27 -1.93 L-42.37 -1.98 L-42.47 -2.04 L-42.57 -2.10 L-42.66 -2.16 L-42.76 -2.21 L-42.86 -2.27 L-42.95 -2.34 L-43.05 -2.40 L-43.14 -2.46 L-43.24 -2.52 L-43.33 -2.59 L-43.42 -2.65 L-43.51 -2.72 L-43.60 -2.79 L-43.69 -2.86 L-43.78 -2.93 L-43.87 -3.00 L-43.96 -3.07 L-44.05 -3.14 L-44.13 -3.21 L-44.22 -3.29 L-44.30 -3.36 L-44.39 -3.44 L-44.47 -3.52 L-44.55 -3.59 L-44.63 -3.67 L-44.71 -3.75 L-44.79 -3.83 L-44.87 -3.92 L-44.95 -4.00 L-45.02 -4.08 L-45.10 -4.17 L-45.17 -4.25 L-45.25 -4.34 L-45.32 -4.42 L-45.39 -4.51 L-45.46 -4.60 L-45.53 -4.69 L-45.60 -4.78 L-45.67 -4.87 L-45.73 -4.96 L-45.80 -5.06 L-45.86 -5.15 L-45.92 -5.24 L-45.98 -5.34 L-46.04 -5.44 L-46.10 -5.53 L-46.16 -5.63 L-46.22 -5.73 L-46.27 -5.83 L-46.33 -5.93 L-46.38 -6.03 L-46.43 -6.13 L-46.48 -6.23 L-46.53 -6.33 L-46.58 -6.43 L-46.62 -6.54 L-46.67 -6.64 L-46.71 -6.75 L-46.75 -6.85 L-46.80 -6.96 L-46.83 -7.06 L-46.87 -7.17 L-46.91 -7.28 L-46.95 -7.38 L-46.98 -7.49 L-47.01 -7.60 L-47.04 -7.71 L-47.07 -7.82 L-47.10 -7.93 L-47.13 -8.04 L-47.15 -8.15 L-47.18 -8.26 L-47.20 -8.37 L-47.22 -8.48 L-47.24 -8.59 L-47.26 -8.70 L-47.27 -8.82 L-47.29 -8.93 L-47.30 -9.04 L-47.31 -9.15 L-47.33 -9.27 L-47.33 -9.38 L-47.34 -9.49 L-47.35 -9.60 L-47.35 -9.72 L-47.36 -9.83 L-47.36 -9.94 L-47.36 -10.06 L-47.36 -10.17 L-47.35 -10.28 L-47.35 -10.40 L-47.34 -10.51 L-47.33 -10.62 L-47.33 -10.73 L-47.31 -10.85 L-47.30 -10.96 L-47.29 -11.07 L-47.27 -11.18 L-47.26 -11.30 L-47.24 -11.41 L-47.22 -11.52 L-47.20 -11.63 L-47.18 -11.74 L-47.15 -11.85 L-47.13 -11.96 L-47.10 -12.07 L-47.07 -12.18 L-47.04 -12.29 L-47.01 -12.40 L-46.98 -12.51 L-46.95 -12.62 L-46.91 -12.72 L-46.87 -12.83 L-46.83 -12.94 L-46.80 -13.04 L-46.75 -13.15 L-46.71 -13.25 L-46.67 -13.36 L-46.62 -13.46 L-46.58 -13.57 L-46.53 -13.67 L-46.48 -13.77 L-46.43 -13.87 L-46.38 -13.97 L-46.33 -14.07 L-46.27 -14.17 L-46.22 -14.27 L-46.16 -14.37 L-46.10 -14.47 L-46.04 -14.56 L-45.98 -14.66 L-45.92 -14.76 L-45.86 -14.85 L-45.80 -14.94 L-45.73 -15.04 L-45.67 -15.13 L-45.60 -15.22 L-45.53 -15.31 L-45.46 -15.40 L-45.39 -15.49 L-45.32 -15.58 L-45.25 -15.66 L-45.17 -15.75 L-45.10 -15.83 L-45.02 -15.92 L-44.95 -16.00 L-44.87 -16.08 L-44.79 -16.17 L-44.71 -16.25 L-44.63 -16.33 L-44.55 -16.41 L-44.47 -16.48 L-44.39 -16.56 L-44.30 -16.64 L-44.22 -16.71 L-44.13 -16.79 L-44.05 -16.86 L-43.96 -16.93 L-43.87 -17.00 L-43.78 -17.07 L-43.69 -17.14 L-43.60 -17.21 L-43.51 -17.28 L-43.42 -17.35 L-43.33 -17.41 L-43.24 -17.48 L-43.14 -17.54 L-43.05 -17.60 L-42.95 -17.66 L-42.86 -17.73 L-42.76 -17.79 L-42.66 -17.84 L-42.57 -17.90 L-42.47 -17.96 L-42.37 -18.02 L-42.27 -18.07 L-42.17 -18.12 L-42.07 -18.18 L-41.97 -18.23 L-41.87 -18.28 L-41.77 -18.33 L-41.67 -18.38 L-41.57 -18.43 L-41.46 -18.48 L-41.36 -18.52 L-41.26 -18.57 L-41.15 -18.61 L-41.05 -18.66 L-40.94 -18.70 L-40.84 -18.74 L-40.73 -18.78 L-40.63 -18.82 L-40.52 -18.86 L-40.41 -18.90 L-40.31 -18.94 L-40.20 -18.98 L-40.09 -19.01 L-39.99 -19.05 L-39.88 -19.08 L-39.77 -19.11 L-39.66 -19.15 L-39.55 -19.18 L-39.44 -19.21 L-39.33 -19.24 L-39.23 -19.27 L-39.12 -19.30 L-39.01 -19.33 L-38.90 -19.35 L-38.79 -19.38 L-38.68 -19.41 L-38.57 -19.43 L-38.46 -19.46 L-38.34 -19.48 L-38.23 -19.50 L-38.12 -19.52 L-38.01 -19.55 L-37.90 -19.57 L-37.79 -19.59 L-37.68 -19.61 L-37.57 -19.62 L-37.45 -19.64 L-37.34 -19.66 L-37.23 -19.68 L-37.12 -19.69 L-37.01 -19.71 L-36.89 -19.73 L-36.78 -19.74 L-36.67 -19.75 L-36.56 -19.77 L-36.44 -19.78 L-36.33 -19.79 L-36.22 -19.81 L-36.11 -19.82 L-35.99 -19.83 L-35.88 -19.84 L-35.77 -19.85 L-35.66 -19.86 L-35.54 -19.87 L-35.43 -19.88 L-35.32 -19.89 L-35.20 -19.89 L-35.09 -19.90 L-34.98 -19.91 L-34.87 -19.91 L-34.75 -19.92 L-34.64 -19.93 L-34.53 -19.93 L-34.41 -19.94 L-34.30 -19.94 L-34.19 -19.95 L-34.07 -19.95 L-33.96 -19.96 L-33.85 -19.96 L-33.74 -19.97 L-33.62 -19.97 L-33.51 -19.97 L-33.40 -19.97 L-33.28 -19.98 L-33.17 -19.98 L-33.06 -19.98 L-32.94 -19.98 L-32.83 -19.99 L-32.72 -19.99 L-32.60 -19.99 L-32.49 -19.99 L-32.38 -19.99 L-32.26 -19.99 L-32.15 -19.99 L-32.04 -20.00 L-31.92 -20.00 L-31.81 -20.00 L-31.70 -20.00 L-31.58 -20.00 L-31.47 -20.00 L-31.36 -20.00 L-31.25 -20.00 L-31.13 -20.00 L-31.02 -20.00 L-30.91 -20.00 L-30.79 -20.00 L-30.68 -20.00 L-30.57 -20.00 L-30.45 -20.00 L-30.34 -20.00 L-30.23 -20.00 L-30.11 -20.00 L-30.00 -20.00 L-29.89 -20.00 L-28.39 -20.00 L-26.89 -20.00 L-25.39 -20.00 L-23.89 -20.00 L-22.39 -20.00 L-20.89 -20.00 L-19.39 -20.00 L-17.89 -20.00 L-16.39 -20.00 L-14.89 -20.00 L-13.39 -20.00 L-11.89 -20.00 L-10.39 -20.00 L-8.89 -20.00 L-7.39 -20.00 L-5.89 -20.00 L-4.39 -20.00 L-2.89 -20.00 L-1.39 -20.00 L0.11 -20.00 L1.61 -20.00 L3.11 -20.00 L4.61 -20.00 L6.11 -20.00 L7.61 -20.00 L9.11 -20.00 L10.61 -20.00 L12.11 -20.00 L13.61 -20.00 L15.11 -20.00 L16.61 -20.00 L18.11 -20.00 L19.61 -20.00 L21.11 -20.00 L22.61 -20.00 L24.11 -20.00 L25.61 -20.00 L27.11 -20.00 L28.61 -20.00 L30.11 -20.00 L30.42 -20.00 L30.72 -20.00 L31.02 -20.00 L31.33 -20.00 L31.63 -20.00 L31.93 -20.00 L32.24 -19.99 L32.54 -19.99 L32.84 -19.99 L33.15 -19.98 L33.45 -19.97 L33.75 -19.97 L34.06 -19.96 L34.36 -19.95 L34.66 -19.94 L34.97 -19.93 L35.27 -19.91 L35.57 -19.90 L35.88 -19.88 L36.18 -19.86 L36.48 -19.84 L36.78 -19.82 L37.09 -19.80 L37.39 -19.77 L37.69 -19.75 L37.99 -19.72 L38.29 -19.69 L38.60 -19.65 L38.90 -19.62 L39.20 -19.58 L39.50 -19.54 L39.80 -19.50 L40.10 -19.45 L40.40 -19.41 L40.70 -19.36 L41.00 -19.30 L41.30 -19.25 L41.59 -19.19 L41.89 -19.13 L42.19 -19.07 L42.48 -19.00 L42.78 -18.93 L43.07 -18.86 L43.37 -18.79 L43.66 -18.71 L43.95 -18.63 L44.25 -18.55 L44.54 -18.46 L44.83 -18.37 L45.12 -18.28 L45.40 -18.19 L45.69 -18.09 L45.98 -17.99 L46.26 -17.88 L46.55 -17.78 L46.83 -17.66 L47.11 -17.55 L47.39 -17.43 L47.67 -17.31 L47.94 -17.19 L48.22 -17.06 L48.49 -16.93 L48.76 -16.80 L49.04 -16.66 L49.30 -16.52 L49.57 -16.37 L49.84 -16.23 L50.10 -16.07 L50.36 -15.92 L50.62 -15.76 L50.88 -15.60 L51.13 -15.44 L51.39 -15.27 L51.64 -15.10 L51.88 -14.93 L52.13 -14.75 L52.37 -14.57 L52.62 -14.38 L52.85 -14.20 L53.09 -14.01 L53.32 -13.81 L53.55 -13.61 L53.78 -13.41 L54.01 -13.21 L54.23 -13.00 L54.45 -12.79 L54.66 -12.58 L54.88 -12.37 L55.09 -12.15 L55.29 -11.92 L55.50 -11.70 L55.70 -11.47 L55.90 -11.24 L56.09 -11.01 L56.28 -10.77 L56.47 -10.53 L56.65 -10.29 L56.83 -10.05 L57.01 -9.80 L57.18 -9.55 L57.35 -9.30 L57.51 -9.04 L57.67 -8.79 L57.83 -8.53 L57.98 -8.26 L58.13 -8.00 L58.28 -7.73 L58.42 -7.46 L58.55 -7.19 L58.69 -6.92 L58.82 -6.65 L58.94 -6.37 L59.06 -6.09 L59.18 -5.81 L59.29 -5.53 L59.40 -5.25 L59.50 -4.96 L59.60 -4.67 L59.69 -4.39 L59.78 -4.10 L59.87 -3.80 L59.95 -3.51 L60.02 -3.22 L60.10 -2.92 L60.16 -2.63 L60.23 -2.33 L60.28 -2.03 L60.34 -1.73 L60.39 -1.44 L60.43 -1.13 L60.47 -0.83 L60.51 -0.53 L60.54 -0.23 L60.56 0.07 L60.58 0.37 L60.60 0.68 L60.61 0.98 L60.62 1.28 L60.62 1.59 L60.62 1.89 L60.61 2.19 L60.60 2.50 L60.58 2.80 L60.56 3.10 L60.54 3.40 L60.51 3.71 L60.47 4.01 L60.43 4.31 L60.39 4.61 L60.34 4.91 L60.29 5.21 L60.23 5.50 L60.17 5.80 L60.10 6.10 L60.03 6.39 L59.96 6.69 L59.88 6.98 L59.79 7.27 L59.71 7.56 L59.61 7.85 L59.52 8.14 L59.42 8.42 L59.31 8.71 L59.20 8.99 L59.09 9.27 L58.97 9.55 L58.85 9.83 L58.72 10.11 L58.59 10.38 L58.46 10.65 L58.32 10.92 L58.18 11.19 L58.03 11.46 L57.89 11.72 L57.73 11.98 L57.58 12.24 L57.42 12.50 L57.25 12.76 L57.08 13.01 L56.91 13.26 L56.74 13.51 L56.56 13.75 L56.38 14.00 L56.19 14.24 L56.01 14.48 L55.81 14.71 L55.62 14.94 L55.42 15.17 L55.22 15.40 L55.02 15.63 L54.81 15.85 L54.60 16.07 L54.39 16.28 L54.17 16.50 L53.95 16.71 L53.73 16.92 L53.51 17.12 L53.28 17.32 L53.05 17.52 L52.82 17.72 L52.59 17.91 L52.35 18.10 L52.11 18.29 L51.87 18.47 L51.63 18.65 L51.38 18.83 L51.14 19.01 L50.89 19.18 L50.63 19.35 L50.38 19.51 L50.12 19.67 L49.87 19.83 L49.61 19.99 L49.34 20.14 L49.08 20.29 L48.81 20.44 L48.55 20.58 L48.28 20.73 L48.01 20.86 L47.74 21.00 L47.46 21.13 L47.19 21.26 L46.91 21.38 L46.63 21.50 L46.35 21.62 L46.07 21.74 L45.79 21.85 L45.51 21.96 L45.23 22.07 L44.94 22.17 L44.65 22.27 L44.37 22.37 L44.08 22.46 L43.79 22.56 L43.50 22.64 L43.21 22.73 L42.92 22.81 L42.62 22.89 L42.33 22.97 L42.04 23.04 L41.74 23.11 L41.45 23.18 L41.15 23.25 L40.85 23.31 L40.55 23.37 L40.26 23.43 L39.96 23.48 L39.66 23.53 L39.36 23.58 L39.06 23.62 L38.76 23.67 L38.46 23.71 L38.16 23.74 L37.86 23.78 L37.55 23.81 L37.25 23.84 L36.95 23.87 L36.65 23.89 L36.35 23.91 L36.04 23.93 L35.74 23.95 L35.44 23.96 L35.13 23.98 L34.83 23.99 L34.53 23.99 L34.22 24.00 L33.92 24.00 L33.62 24.00 L33.31 24.00 L33.01 23.99 L32.71 23.99 L32.40 23.98 L32.10 23.97 L31.80 23.95 L31.49 23.94 L31.19 23.92 L30.89 23.90 L30.59 23.88 L30.28 23.86 L29.98 23.83 L29.68 23.80 L29.38 23.77 L29.08 23.74 L28.77 23.71 L28.47 23.67 L28.17 23.64 L27.87 23.60 L27.57 23.56 L27.27 23.51 L26.97 23.47 L26.67 23.42 L26.37 23.38 L26.07 23.33 L25.77 23.28 L25.47 23.22 L25.17 23.17 L24.88 23.11 L24.58 23.06 L24.28 23.00 L23.98 22.94 L23.69 22.87 L23.39 22.81 L23.09 22.75 L22.80 22.68 L22.50 22.61 L22.21 22.55 L21.91 22.48 L21.62 22.40 L21.32 22.33 L21.03 22.26 L20.73 22.18 L20.44 22.11 L20.15 22.03 L19.85 21.95 L19.56 21.87 L19.27 21.79 L18.98 21.71 L18.68 21.63 L18.39 21.54 L18.10 21.46 L17.81 21.37 L17.52 21.28 L17.23 21.20 L16.94 21.11 L16.65 21.02 L16.36 20.93 L16.07 20.84 L15.78 20.74 L15.49 20.65 L15.20 20.56 L14.92 20.46 L14.63 20.37 L14.34 20.27 L14.05 20.17 L13.77 20.08 L13.48 19.98 L13.19 19.88 L12.91 19.78 L12.62 19.68 L12.33 19.58 L12.05 19.48 L11.76 19.37 L11.48 19.27 L11.19 19.17 L10.90 19.07 L10.62 18.96 L10.34 18.86 L10.05 18.75 L9.77 18.65 L9.48 18.54 L9.20 18.43 L8.91 18.33 L8.63 18.22 L8.35 18.11 L8.06 18.00 L7.78 17.90 L7.50 17.79 L7.21 17.68 L6.93 17.57 L6.65 17.46 L6.36 17.35 L6.08 17.24 L5.80 17.13 L5.52 17.02 L5.23 16.91 L4.95 16.80 L4.67 16.69 L4.39 16.57 L4.11 16.46 L3.82 16.35 L3.54 16.24 L3.26 16.13 L2.98 16.01 L2.70 15.90 L2.41 15.79 L2.13 15.68 L1.85 15.56 L1.57 15.45 L1.29 15.34 L1.01 15.22 L0.72 15.11 L0.44 15.00 L0.16 14.88 L-0.12 14.77 L-0.40 14.66 L-0.68 14.54 L-0.96 14.43 L-1.24 14.32 L-1.53 14.20 L-1.81 14.09 L-2.09 13.98 L-2.37 13.86 L-2.65 13.75 L-2.93 13.64 L-3.21 13.52 L-3.50 13.41 L-3.78 13.30 L-4.06 13.18 L-4.34 13.07 L-4.62 12.95 L-4.73 12.91 L-4.83 12.87 L-4.94 12.83 L-5.05 12.78 L-5.15 12.74 L-5.26 12.70 L-5.37 12.65 L-5.47 12.61 L-5.58 12.57 L-5.69 12.52 L-5.79 12.48 L-5.90 12.44 L-6.01 12.39 L-6.11 12.35 L-6.22 12.31 L-6.33 12.27 L-6.43 12.22 L-6.54 12.18 L-6.65 12.14 L-6.75 12.09 L-6.86 12.05 L-6.97 12.01 L-7.07 11.96 L-7.18 11.92 L-7.29 11.88 L-7.39 11.84 L-7.50 11.79 L-7.61 11.75 L-7.71 11.71 L-7.82 11.66 L-7.93 11.62 L-8.03 11.58 L-8.14 11.54 L-8.25 11.49 L-8.35 11.45 L-8.46 11.41 L-8.57 11.37 L-8.67 11.32 L-8.78 11.28 L-8.89 11.24 L-9.00 11.20 L-9.10 11.15 L-9.21 11.11 L-9.32 11.07 L-9.42 11.03 L-9.53 10.98 L-9.64 10.94 L-9.74 10.90 L-9.85 10.86 L-9.96 10.82 L-10.07 10.77 L-10.17 10.73 L-10.28 10.69 L-10.39 10.65 L-10.49 10.61 L-10.60 10.57 L-10.71 10.52 L-10.82 10.48 L-10.92 10.44 L-11.03 10.40 L-11.14 10.36 L-11.24 10.32 L-11.35 10.28 L-11.46 10.23 L-11.57 10.19 L-11.67 10.15 L-11.78 10.11 L-11.89 10.07 L-12.00 10.03 L-12.10 9.99 L-12.21 9.95 L-12.32 9.91 L-12.43 9.87 L-12.53 9.83 L-12.64 9.79 L-12.75 9.75 L-12.86 9.71 L-12.97 9.67 L-13.07 9.63 L-13.18 9.59 L-13.29 9.55 L-13.40 9.51 L-13.50 9.47 L-13.61 9.43 L-13.72 9.39 L-13.83 9.35 L-13.94 9.31 L-14.05 9.27 L-14.15 9.23 L-14.26 9.19 L-14.37 9.15 L-14.48 9.11 L-14.59 9.08 L-14.69 9.04 L-14.80 9.00 L-14.91 8.96 L-15.02 8.92 L-15.13 8.88 L-15.24 8.85 L-15.35 8.81 L-15.45 8.77 L-15.56 8.73 L-15.67 8.70 L-15.78 8.66 L-15.89 8.62 L-16.00 8.58 L-16.11 8.55 L-16.22 8.51 L-16.32 8.47 L-16.43 8.44 L-16.54 8.40 L-16.65 8.36 L-16.76 8.33 L-16.87 8.29 L-16.98 8.26 L-17.09 8.22 L-17.20 8.18 L-17.31 8.15 L-17.42 8.11 L-17.53 8.08 L-17.64 8.04 L-17.75 8.01 L-17.85 7.97 L-17.96 7.94 L-18.07 7.90 L-18.18 7.87 L-18.29 7.83 L-18.40 7.80 L-18.51 7.77 L-18.62 7.73 L-18.73 7.70 L-18.84 7.66 L-18.95 7.63 L-19.06 7.60 L-19.17 7.56 L-19.28 7.53 L-19.39 7.50 L-19.50 7.47 L-19.61 7.43 L-19.72 7.40 L-19.83 7.37 L-19.95 7.34 L-20.06 7.30 L-20.17 7.27 L-20.28 7.24 L-20.39 7.21 L-20.50 7.18 L-20.61 7.15 L-20.72 7.12 L-20.83 7.09 L-20.94 7.06 L-21.05 7.02 L-21.16 6.99 L-21.27 6.96 L-21.39 6.93 L-21.50 6.90 L-21.61 6.88 L-21.72 6.85 L-21.83 6.82 L-21.94 6.79 L-22.05 6.76 L-22.16 6.73 L-22.28 6.70 L-22.39 6.67 L-22.50 6.64 L-22.61 6.62 L-22.72 6.59 L-22.83 6.56 L-22.94 6.53 L-23.06 6.51 L-23.17 6.48 L-23.28 6.45 L-23.39 6.42 L-23.50 6.40 L-23.62 6.37 L-23.73 6.35 L-23.84 6.32 L-23.95 6.29 L-24.06 6.27 L-24.18 6.24 L-24.29 6.22 L-24.40 6.19 L-24.51 6.17 L-24.62 6.14 L-24.74 6.12 L-24.85 6.09 L-24.96 6.07 L-25.07 6.04 L-25.19 6.02 L-25.30 6.00 L-25.41 5.97 L-25.52 5.95 L-25.64 5.93 L-25.75 5.90 L-25.86 5.88 L-25.97 5.86 L-26.09 5.83 L-26.20 5.81 L-26.31 5.79 L-26.43 5.77 L-26.54 5.75 L-26.65 5.72 L-26.76 5.70 L-26.88 5.68 L-26.99 5.66 L-27.10 5.64 L-27.22 5.62 L-27.33 5.60 L-27.44 5.58 L-27.56 5.56 L-27.67 5.54 L-27.78 5.52 L-27.90 5.50 L-28.01 5.48 L-28.12 5.46 L-28.24 5.44 L-28.35 5.42 L-28.46 5.40 L-28.58 5.39 L-28.69 5.37 L-28.80 5.35 L-28.92 5.33 L-29.03 5.31 L-29.15 5.30 L-29.26 5.28 L-29.37 5.26 L-29.49 5.24 L-29.60 5.23 L-29.71 5.21 L-29.83 5.20 L-29.94 5.18 L-30.06 5.16 L-30.17 5.15 L-30.28 5.13 L-30.40 5.12 L-30.51 5.10 L-30.63 5.08 L-30.74 5.07 L-30.85 5.05 L-30.97 5.04 L-31.08 5.03 L-31.20 5.01 L-31.31 5.00 L-31.42 4.98 L-31.54 4.97 L-31.65 4.96 L-31.77 4.94 L-31.88 4.93 L-31.99 4.92 L-32.11 4.90 L-32.22 4.89 L-32.34 4.88 L-32.45 4.86 L-32.57 4.85 L-32.68 4.84 L-32.79 4.83 L-32.91 4.82 L-33.02 4.80 L-33.14 4.79 L-33.25 4.78 L-33.37 4.77 L-33.48 4.76 L-33.60 4.75 L-33.71 4.74 L-33.83 4.73 L-33.94 4.72 L-34.05 4.71 L-34.17 4.70 L-34.28 4.69 L-34.40 4.68 L-34.51 4.67 L-34.63 4.66 L-34.74 4.65 L-34.86 4.64 L-34.97 4.63 L-35.09 4.62 L-35.20 4.61 L-35.31 4.61 L-35.43 4.60 L-35.54 4.59 L-35.66 4.58 L-35.77 4.57 L-35.89 4.56 L-36.00 4.56 L-36.12 4.55 L-36.23 4.54 L-36.35 4.53 L-36.46 4.53 L-36.58 4.52 L-36.69 4.51 L-36.81 4.51 L-36.92 4.50 L-37.04 4.49 L-37.15 4.49 L-37.27 4.48 L-37.38 4.48 L-37.50 4.47 L-37.61 4.46 L-37.73 4.46 L-37.84 4.45 L-37.96 4.45 L-38.07 4.44 L-38.18 4.44 L-38.30 4.43 L-38.41 4.43 L-38.53 4.42 L-38.64 4.42 L-38.76 4.41 L-38.87 4.41 L-38.99 4.40 L-39.10 4.40 L-39.22 4.39 L-39.33 4.39 L-39.45 4.39 L-39.56 4.38 L-39.68 4.38 L-39.79 4.37 L-39.91 4.37 L-40.02 4.37 L-40.14 4.36 L-40.25 4.36 L-40.37 4.36 L-40.48 4.35 L-40.60 4.35 L-40.71 4.35 L-40.83 4.35 L-40.94 4.34 L-41.06 4.34 L-41.17 4.34 L-41.29 4.34 L-41.40 4.33 L-41.52 4.33 L-41.63 4.33 L-41.75 4.33 L-41.86 4.32 L-41.98 4.32 L-42.09 4.32 L-42.21 4.32 L-42.32 4.32 L-42.44 4.31 L-42.55 4.31 L-42.67 4.31 L-42.78 4.31 L-42.90 4.31 L-43.01 4.31 L-43.13 4.31 L-43.24 4.30 L-43.36 4.30 L-43.47 4.30 L-43.59 4.30 L-43.70 4.30 L-43.82 4.30 L-43.93 4.30 L-44.05 4.30 L-44.16 4.30 L-44.28 4.29 L-44.39 4.29 L-44.51 4.29 L-44.62 4.29 L-44.74 4.29 L-44.85 4.29 L-44.97 4.29 L-45.08 4.29 L-45.20 4.29 L-45.31 4.29 L-45.43 4.29 L-45.54 4.29 L-45.66 4.29 L-45.77 4.29 L-45.89 4.29 L-46.00 4.29 L-46.12 4.29 L-46.23 4.29 L-46.35 4.29 L-46.46 4.29 L-46.58 4.28 L-46.69 4.28 L-46.81 4.28 L-46.92 4.28 L-47.04 4.28 L-47.15 4.28 L-47.27 4.28 L-47.38 4.28 L-47.50 4.28 L-47.61 4.28 L-47.73 4.28 L-47.84 4.28 L-47.96 4.28 L-48.07 4.28 L-48.19 4.28 L-48.30 4.28 L-48.42 4.28 L-48.53 4.28 L-48.65 4.28 L-48.76 4.28 L-48.88 4.28 L-48.99 4.28 L-49.11 4.28 L-49.22 4.28 L-49.34 4.28 L-49.69 4.28 L-50.04 4.28 L-50.39 4.28 L-50.74 4.28 L-51.09 4.28 L-51.44 4.28 L-51.79 4.28 L-52.14 4.28 L-52.49 4.28 L-52.84 4.28 L-53.19 4.28 L-53.54 4.28 L-53.89 4.28 L-54.24 4.28 L-54.59 4.28 L-54.94 4.28 L-55.29 4.28 L-55.64 4.28 L-55.99 4.28 L-56.34 4.28 L-56.69 4.28 L-57.04 4.28 L-57.39 4.28 L-57.74 4.28 L-58.09 4.28 L-58.44 4.28 L-58.79 4.28 L-59.14 4.28 L-59.49 4.28 L-59.84 4.28 L-60.19 4.28 L-60.54 4.28 L-60.89 4.28 L-61.24 4.28 L-61.59 4.28 L-61.94 4.28 L-62.29 4.28 L-62.64 4.28 L-62.99 4.28 L-63.34 4.28" fill="none" stroke="#B08A45" stroke-width="7" stroke-linecap="round" stroke-linejoin="round"/></svg>